<?xml version="1.0" standalone="no"?>
<!DOCTYPE svg PUBLIC "-//W3C//DTD SVG 20010904//EN"
 "http://www.w3.org/TR/2001/REC-SVG-20010904/DTD/svg10.dtd">
<svg version="1.0" xmlns="http://www.w3.org/2000/svg"
 width="1255.000000pt" height="1254.000000pt" viewBox="0 0 1255.000000 1254.000000"
 preserveAspectRatio="xMidYMid meet">
<metadata>
Created by potrace 1.15, written by Peter Selinger 2001-2017
</metadata>
<g transform="translate(0.000000,1254.000000) scale(0.100000,-0.100000)"
fill="#000000" stroke="none">
<path d="M6122 9623 c-22 -37 -72 -126 -112 -198 -41 -71 -97 -169 -127 -217
-29 -47 -53 -90 -53 -96 0 -5 27 -51 59 -100 91 -139 248 -403 536 -902 144
-250 551 -957 905 -1570 354 -613 684 -1187 735 -1275 51 -88 161 -279 245
-425 84 -146 222 -384 305 -530 84 -146 236 -409 337 -585 l185 -320 -601 -8
c-331 -4 -1013 -4 -1516 0 l-914 8 -192 335 c-105 184 -245 427 -311 540
l-121 205 96 6 c54 4 474 7 935 8 460 0 837 4 837 8 0 14 -117 226 -212 386
l-101 167 -950 -2 -950 -3 -76 -135 c-42 -74 -113 -197 -159 -272 l-82 -137
201 -348 c111 -191 318 -553 461 -803 143 -250 271 -472 284 -492 l24 -38
2160 0 c1187 0 2161 3 2163 8 2 4 -206 369 -463 812 -666 1149 -3320 5751
-3402 5900 -38 69 -73 129 -78 133 -4 5 -26 -22 -48 -60z"/>
<path d="M4995 7663 c-148 -258 -490 -853 -760 -1323 -270 -470 -590 -1026
-710 -1235 -120 -209 -294 -510 -385 -670 -444 -772 -750 -1304 -826 -1436
-46 -80 -84 -151 -84 -157 0 -9 310 -12 1283 -12 706 0 1286 3 1289 6 3 3 -30
71 -74 152 -103 190 -140 252 -201 335 l-49 67 -526 1 c-290 1 -577 4 -639 8
l-112 6 652 1135 c359 625 823 1433 1032 1797 209 364 383 662 386 663 6 0
136 -224 460 -790 l145 -255 319 -3 c175 -1 322 1 327 6 4 4 -67 136 -159 292
-92 157 -372 642 -623 1079 -250 437 -460 796 -466 798 -5 2 -131 -207 -279
-464z"/>
</g>
</svg>
